<?xml version="1.0" ?>
                <!-- Created with Inkscape (http://www.inkscape.org/) -->
                <svg id="svg11376" inkscape:version="0.91 r13725" sodipodi:docname="Color_52_Faces_v.2.0.svg" version="1.1" viewBox="3257.5591 -472.4082 225.22835 313.81104" width="223.22835mm" height="311.81104mm" xmlns="http://www.w3.org/2000/svg" xmlns:cc="http://creativecommons.org/ns#" xmlns:dc="http://purl.org/dc/elements/1.1/" xmlns:inkscape="http://www.inkscape.org/namespaces/inkscape" xmlns:rdf="http://www.w3.org/1999/02/22-rdf-syntax-ns#" xmlns:sodipodi="http://sodipodi.sourceforge.net/DTD/sodipodi-0.dtd" xmlns:svg="http://www.w3.org/2000/svg" xmlns:xlink="http://www.w3.org/1999/xlink"><g transform="matrix(1.004482,0.000000,0.000000,1.003209,407.266952,-79.857075)"><g id="g8542-3-6" style="display:inline" transform="matrix(0.99553774,0,0,0.99680134,-405.44958,79.60161)">
	
			
      
			
	<g id="g8587-4-9" transform="translate(-4.1467285e-5,2.9626465e-5)">
		
				
        
				
		<rect height="311.81104" id="rect7263-6-4" rx="10.677567" ry="10.664032" style="display:inline;opacity:1;fill:#ffffff;fill-opacity:1;stroke:#000000;stroke-width:1.0005666;stroke-miterlimit:4;stroke-dasharray:none;stroke-opacity:1" width="223.22835" x="3258.5591" y="-471.4082"/>
		
				
        
				
		<path d="m 3318.4068,-438.71333 c -9.226,13.15712 -19.0977,20.72857 -19.2617,30.99333 -0.055,3.3239 1.7421,8.97342 7.3711,10.05478 3.652,0.69833 8.6801,-2.25748 8.7851,-8.26252 -0.016,-1.19555 1.2659,-1.16448 1.2539,0.47372 -0.172,4.73672 -1.6714,10.25156 -4.1914,14.74069 4.0287,0 8.0573,0 12.086,0 -2.52,-4.48913 -4.0194,-10.00397 -4.1914,-14.74069 -0.012,-1.6382 1.2699,-1.66927 1.2539,-0.47372 0.105,6.00504 5.1331,8.96085 8.7851,8.26252 5.629,-1.08136 7.4261,-6.73088 7.3711,-10.05478 -0.164,-10.26476 -10.0357,-17.83621 -19.2617,-30.99333 z" id="path7293-3-2" inkscape:connector-curvature="0" sodipodi:nodetypes="cccccccccccc" style="display:inline;opacity:1"/>
		
				
        
				
		<path d="m 3275.7763,-421.43493 c -4.3106,5.48214 -8.9228,8.6369 -8.9994,12.91389 -0.026,1.38495 0.8139,3.73892 3.4439,4.18949 1.7063,0.29097 4.0555,-0.94062 4.1046,-3.44272 -0.01,-0.49815 0.5914,-0.4852 0.5858,0.19738 -0.08,1.97364 -0.7809,4.27149 -1.9583,6.14196 1.8823,0 3.7645,0 5.6468,0 -1.1774,-1.87047 -1.878,-4.16832 -1.9583,-6.14196 -0.01,-0.68258 0.5933,-0.69553 0.5858,-0.19738 0.049,2.5021 2.3983,3.73369 4.1046,3.44272 2.63,-0.45057 3.4696,-2.80454 3.4439,-4.18949 -0.077,-4.27699 -4.6889,-7.43175 -8.9994,-12.91389 z" id="path7295-4-8" inkscape:connector-curvature="0" sodipodi:nodetypes="cccccccccccc" style="display:inline;opacity:1"/>
		
				
        
				
		<path d="m 3318.4068,-258.43246 c -9.226,-13.15712 -19.0977,-20.72857 -19.2617,-30.99333 -0.055,-3.3239 1.7421,-8.97342 7.3711,-10.05478 3.652,-0.69833 8.6801,2.25748 8.7851,8.26252 -0.016,1.19555 1.2659,1.16448 1.2539,-0.47372 -0.172,-4.73672 -1.6714,-10.25156 -4.1914,-14.74069 4.0287,0 8.0573,0 12.086,0 -2.52,4.48913 -4.0194,10.00397 -4.1914,14.74069 -0.012,1.6382 1.2699,1.66927 1.2539,0.47372 0.105,-6.00504 5.1331,-8.96085 8.7851,-8.26252 5.629,1.08136 7.4261,6.73088 7.3711,10.05478 -0.164,10.26476 -10.0357,17.83621 -19.2617,30.99333 z" id="path7297-5-1" inkscape:connector-curvature="0" sodipodi:nodetypes="cccccccccccc" style="display:inline;opacity:1"/>
		
				
        
				
		<path d="m 3464.5708,-209.57029 c -4.3106,-5.48214 -8.9228,-8.6369 -8.9994,-12.91389 -0.026,-1.38495 0.8139,-3.73892 3.4439,-4.18949 1.7063,-0.29097 4.0555,0.94062 4.1046,3.44272 -0.01,0.49815 0.5914,0.4852 0.5858,-0.19738 -0.08,-1.97364 -0.7809,-4.27149 -1.9583,-6.14196 1.8823,0 3.7645,0 5.6468,0 -1.1774,1.87047 -1.878,4.16832 -1.9583,6.14196 -0.01,0.68258 0.5933,0.69553 0.5858,0.19738 0.049,-2.5021 2.3983,-3.73369 4.1046,-3.44272 2.63,0.45057 3.4696,2.80454 3.4439,4.18949 -0.077,4.27699 -4.6889,7.43175 -8.9994,12.91389 z" id="path7299-3-5" inkscape:connector-curvature="0" sodipodi:nodetypes="cccccccccccc" style="display:inline;opacity:1"/>
		
				
        
				
		<path d="m 3421.9396,-438.71333 c -9.226,13.15712 -19.0977,20.72857 -19.2617,30.99333 -0.055,3.3239 1.7421,8.97342 7.3711,10.05478 3.652,0.69833 8.6801,-2.25748 8.7851,-8.26252 -0.016,-1.19555 1.2659,-1.16448 1.2539,0.47372 -0.172,4.73672 -1.6714,10.25156 -4.1914,14.74069 4.0287,0 8.0573,0 12.086,0 -2.52,-4.48913 -4.0194,-10.00397 -4.1914,-14.74069 -0.012,-1.6382 1.2699,-1.66927 1.2539,-0.47372 0.105,6.00504 5.1331,8.96085 8.7851,8.26252 5.629,-1.08136 7.4261,-6.73088 7.3711,-10.05478 -0.164,-10.26476 -10.0357,-17.83621 -19.2617,-30.99333 z" id="path7301-4-0" inkscape:connector-curvature="0" sodipodi:nodetypes="cccccccccccc" style="display:inline;opacity:1"/>
		
				
        
				
		<path d="m 3318.4068,-372.5729 c -9.226,13.15712 -19.0977,20.72857 -19.2617,30.99333 -0.055,3.3239 1.7421,8.97342 7.3711,10.05478 3.652,0.69833 8.6801,-2.25748 8.7851,-8.26252 -0.016,-1.19555 1.2659,-1.16448 1.2539,0.47372 -0.172,4.73672 -1.6714,10.25156 -4.1914,14.74069 4.0287,0 8.0573,0 12.086,0 -2.52,-4.48913 -4.0194,-10.00397 -4.1914,-14.74069 -0.012,-1.6382 1.2699,-1.66927 1.2539,-0.47372 0.105,6.00504 5.1331,8.96085 8.7851,8.26252 5.629,-1.08136 7.4261,-6.73088 7.3711,-10.05478 -0.164,-10.26476 -10.0357,-17.83621 -19.2617,-30.99333 z" id="path7303-7-8" inkscape:connector-curvature="0" sodipodi:nodetypes="cccccccccccc" style="display:inline;opacity:1"/>
		
				
        
				
		<path d="m 3370.1732,-396.0729 c -9.226,13.15712 -19.0977,20.72857 -19.2617,30.99333 -0.055,3.3239 1.7421,8.97342 7.3711,10.05478 3.652,0.69833 8.6801,-2.25748 8.7851,-8.26252 -0.016,-1.19555 1.2659,-1.16448 1.2539,0.47372 -0.172,4.73672 -1.6714,10.25156 -4.1914,14.74069 4.0287,0 8.0573,0 12.086,0 -2.52,-4.48913 -4.0194,-10.00397 -4.1914,-14.74069 -0.012,-1.6382 1.2699,-1.66927 1.2539,-0.47372 0.105,6.00504 5.1331,8.96085 8.7851,8.26252 5.629,-1.08136 7.4261,-6.73088 7.3711,-10.05478 -0.164,-10.26476 -10.0357,-17.83621 -19.2617,-30.99333 z" id="path7305-6-7" inkscape:connector-curvature="0" sodipodi:nodetypes="cccccccccccc" style="display:inline;opacity:1"/>
		
				
        
				
		<path d="m 3421.9396,-372.5729 c -9.226,13.15712 -19.0977,20.72857 -19.2617,30.99333 -0.055,3.3239 1.7421,8.97342 7.3711,10.05478 3.652,0.69833 8.6801,-2.25748 8.7851,-8.26252 -0.016,-1.19555 1.2659,-1.16448 1.2539,0.47372 -0.172,4.73672 -1.6714,10.25156 -4.1914,14.74069 4.0287,0 8.0573,0 12.086,0 -2.52,-4.48913 -4.0194,-10.00397 -4.1914,-14.74069 -0.012,-1.6382 1.2699,-1.66927 1.2539,-0.47372 0.105,6.00504 5.1331,8.96085 8.7851,8.26252 5.629,-1.08136 7.4261,-6.73088 7.3711,-10.05478 -0.164,-10.26476 -10.0357,-17.83621 -19.2617,-30.99333 z" id="path7309-8-5" inkscape:connector-curvature="0" sodipodi:nodetypes="cccccccccccc" style="display:inline;opacity:1"/>
		
				
        
				
		<path d="m 3318.4068,-192.29202 c -9.226,-13.15712 -19.0977,-20.72857 -19.2617,-30.99333 -0.055,-3.3239 1.7421,-8.97342 7.3711,-10.05478 3.652,-0.69833 8.6801,2.25748 8.7851,8.26252 -0.016,1.19555 1.2659,1.16448 1.2539,-0.47372 -0.172,-4.73672 -1.6714,-10.25156 -4.1914,-14.74069 4.0287,0 8.0573,0 12.086,0 -2.52,4.48913 -4.0194,10.00397 -4.1914,14.74069 -0.012,1.6382 1.2699,1.66927 1.2539,0.47372 0.105,-6.00504 5.1331,-8.96085 8.7851,-8.26252 5.629,1.08136 7.4261,6.73088 7.3711,10.05478 -0.164,10.26476 -10.0357,17.83621 -19.2617,30.99333 z" id="path7313-6-8" inkscape:connector-curvature="0" sodipodi:nodetypes="cccccccccccc" style="display:inline;opacity:1"/>
		
				
        
				
		<path d="m 3421.9396,-192.29202 c -9.226,-13.15712 -19.0977,-20.72857 -19.2617,-30.99333 -0.055,-3.3239 1.7421,-8.97342 7.3711,-10.05478 3.652,-0.69833 8.6801,2.25748 8.7851,8.26252 -0.016,1.19555 1.2659,1.16448 1.2539,-0.47372 -0.172,-4.73672 -1.6714,-10.25156 -4.1914,-14.74069 4.0287,0 8.0573,0 12.086,0 -2.52,4.48913 -4.0194,10.00397 -4.1914,14.74069 -0.012,1.6382 1.2699,1.66927 1.2539,0.47372 0.105,-6.00504 5.1331,-8.96085 8.7851,-8.26252 5.629,1.08136 7.4261,6.73088 7.3711,10.05478 -0.164,10.26476 -10.0357,17.83621 -19.2617,30.99333 z" id="path7315-7-3" inkscape:connector-curvature="0" sodipodi:nodetypes="cccccccccccc" style="display:inline;opacity:1"/>
		
				
        
				
		<path d="m 3370.1732,-234.93245 c -9.226,-13.15712 -19.0977,-20.72857 -19.2617,-30.99333 -0.055,-3.3239 1.7421,-8.97342 7.3711,-10.05478 3.652,-0.69833 8.6801,2.25748 8.7851,8.26252 -0.016,1.19555 1.2659,1.16448 1.2539,-0.47372 -0.172,-4.73672 -1.6714,-10.25156 -4.1914,-14.7407 4.0287,0 8.0573,0 12.086,0 -2.52,4.48914 -4.0194,10.00398 -4.1914,14.7407 -0.012,1.6382 1.2699,1.66927 1.2539,0.47372 0.105,-6.00504 5.1331,-8.96085 8.7851,-8.26252 5.629,1.08136 7.4261,6.73088 7.3711,10.05478 -0.164,10.26476 -10.0357,17.83621 -19.2617,30.99333 z" id="path7317-0-2" inkscape:connector-curvature="0" sodipodi:nodetypes="cccccccccccc" style="display:inline;opacity:1"/>
		
				
        
				
		<path d="m 3421.9396,-258.43246 c -9.226,-13.15711 -19.0977,-20.72856 -19.2617,-30.99332 -0.055,-3.3239 1.7421,-8.97342 7.3711,-10.05478 3.652,-0.69833 8.6801,2.25748 8.7851,8.26252 -0.016,1.19555 1.2659,1.16448 1.2539,-0.47372 -0.172,-4.73672 -1.6714,-10.25157 -4.1914,-14.7407 4.0287,0 8.0573,0 12.086,0 -2.52,4.48913 -4.0194,10.00398 -4.1914,14.7407 -0.012,1.6382 1.2699,1.66927 1.2539,0.47372 0.105,-6.00504 5.1331,-8.96085 8.7851,-8.26252 5.629,1.08136 7.4261,6.73088 7.3711,10.05478 -0.164,10.26476 -10.0357,17.83621 -19.2617,30.99332 z" id="path7319-5-6" inkscape:connector-curvature="0" sodipodi:nodetypes="cccccccccccc" style="display:inline;opacity:1"/>
		
				
        
				
		<path d="m 3265.7561,-424.57045 0,-32.99935 3.1988,0 0,32.99935 -3.1988,0 z m 0,0" id="path31-5-4-7" inkscape:connector-curvature="0" style="opacity:1"/>
		
				
        
				
		<path d="m 3278.4368,-457.57045 c -3.0793,0 -5.5542,2.81259 -5.5542,6.30605 l 0,20.38856 c 0,3.49347 2.4762,6.30474 5.5542,6.30474 l 1.7974,0 c 3.0792,0 5.5593,-2.81127 5.5593,-6.30474 l 0,-20.38856 c 0,-3.49346 -2.4814,-6.30605 -5.5593,-6.30605 l -1.7974,0 z m 0.9295,3.12029 c 1.818,0 3.2798,1.39451 3.2798,3.13862 l 0,20.6583 c 0,1.74412 -1.4618,3.15171 -3.2798,3.15171 -1.8179,0 -3.2849,-1.40759 -3.2849,-3.15171 l 0,-20.6583 c 0,-1.7428 1.467,-3.13862 3.2849,-3.13862 l 0,0 z m 0,0" id="path33-4-6-8" inkscape:connector-curvature="0" style="opacity:1"/>
		
				
        
				
		<g id="g8583-6-9" transform="matrix(-1,0,0,1,6929.1386,0)">
			
					
          
					
			<path d="m 3454.5506,-206.43478 0,32.99935 3.1988,0 0,-32.99935 -3.1988,0 z m 0,0" id="path31-5-5-6-7" inkscape:connector-curvature="0" style="opacity:1"/>
			
					
          
					
			<path d="m 3467.2313,-173.43478 c -3.0793,0 -5.5542,-2.81259 -5.5542,-6.30605 l 0,-20.38856 c 0,-3.49347 2.4762,-6.30474 5.5542,-6.30474 l 1.7974,0 c 3.0792,0 5.5593,2.81127 5.5593,6.30474 l 0,20.38856 c 0,3.49346 -2.4814,6.30605 -5.5593,6.30605 l -1.7974,0 z m 0.9295,-3.12029 c 1.818,0 3.2798,-1.39451 3.2798,-3.13862 l 0,-20.6583 c 0,-1.74412 -1.4618,-3.15171 -3.2798,-3.15171 -1.8179,0 -3.2849,1.40759 -3.2849,3.15171 l 0,20.6583 c 0,1.7428 1.467,3.13862 3.2849,3.13862 l 0,0 z m 0,0" id="path33-4-3-7-9" inkscape:connector-curvature="0" style="opacity:1"/>
			
					
        
				
		</g>
		
				
      
			
	</g>
	
			
    
		
</g>
</g></svg>