<?xml version="1.0" ?>
                <!-- Created with Inkscape (http://www.inkscape.org/) -->
                <svg id="svg11376" inkscape:version="0.91 r13725" sodipodi:docname="Color_52_Faces_v.2.0.svg" version="1.1" viewBox="990.4856 -31.444927 225.22835 313.81104" width="223.22835mm" height="311.81104mm" xmlns="http://www.w3.org/2000/svg" xmlns:cc="http://creativecommons.org/ns#" xmlns:dc="http://purl.org/dc/elements/1.1/" xmlns:inkscape="http://www.inkscape.org/namespaces/inkscape" xmlns:rdf="http://www.w3.org/1999/02/22-rdf-syntax-ns#" xmlns:sodipodi="http://sodipodi.sourceforge.net/DTD/sodipodi-0.dtd" xmlns:svg="http://www.w3.org/2000/svg" xmlns:xlink="http://www.w3.org/1999/xlink"><g transform="matrix(1.004485,0.000000,0.000000,1.003207,-8.952258,8.165843)"><g id="g6725" transform="matrix(0.99553491,0,0,0.99680337,8.9122851,-8.1397402)">
	
			
      
			
	<rect height="311.81104" id="rect6554-0" rx="10.677597" ry="10.66401" style="display:inline;fill:#ffffff;fill-opacity:1;stroke:#000000;stroke-width:1.0005666;stroke-miterlimit:4;stroke-dasharray:none;stroke-opacity:1" width="223.22835" x="991.4856" y="-30.444927"/>
	
			
      
			
	<path d="m 1103.0998,50.24996 c -5.1862,-8.5648 -10.6425,-16.8891 -17.461,-24 6.8185,-7.1108 12.2748,-15.4351 17.461,-24 5.1862,8.5649 10.6424,16.8892 17.4609,24 -6.8185,7.1109 -12.2747,15.4352 -17.4609,24 z" fill="#272FD6" id="path6584-3" inkscape:connector-curvature="0" style="display:inline;opacity:1;d40000"/>
	
			
      
			
	<path d="m 1008.7029,39.528358 c -2.1609,-3.568597 -4.4344,-7.037098 -7.2754,-9.999997 2.841,-2.962801 5.1145,-6.4313 7.2754,-10 2.1609,3.5687 4.4343,7.037199 7.2754,10 -2.8411,2.962899 -5.1145,6.4314 -7.2754,9.999997 z" fill="#272FD6" id="path6586-2" inkscape:connector-curvature="0" style="display:inline;opacity:1;d40000"/>
	
			
      
			
	<path d="m 1197.4974,231.393 c -2.1609,-3.5686 -4.4344,-7.0371 -7.2754,-10 2.841,-2.9628 5.1145,-6.4313 7.2754,-10 2.1609,3.5687 4.4343,7.0372 7.2754,10 -2.8411,2.9629 -5.1145,6.4314 -7.2754,10 z" fill="#272FD6" id="path6590-7" inkscape:connector-curvature="0" style="display:inline;opacity:1;d40000"/>
	
			
      
			
	<path d="m 1103.0998,149.46061 c -5.1862,-8.5648 -10.6425,-16.8891 -17.461,-24 6.8185,-7.1108 12.2748,-15.4351 17.461,-24 5.1862,8.5649 10.6424,16.8892 17.4609,24 -6.8185,7.1109 -12.2747,15.4352 -17.4609,24 z" fill="#272FD6" id="path6600-5" inkscape:connector-curvature="0" style="display:inline;opacity:1;d40000"/>
	
			
      
			
	<path d="m 1103.0998,248.67127 c -5.1862,-8.5648 -10.6425,-16.8891 -17.461,-24 6.8185,-7.1108 12.2748,-15.4351 17.461,-24 5.1862,8.5649 10.6424,16.8892 17.4609,24 -6.8185,7.1109 -12.2747,15.4352 -17.4609,24 z" fill="#272FD6" id="path6606-3" inkscape:connector-curvature="0" style="display:inline;opacity:1;d40000"/>
	
			
      
			
	<path d="m 997.99134,9.1592 2.54056,-1.8685 c 2.2049,3.5903 4.6708,5.9551 8.443,5.5492 5.6596,-0.3889 8.0047,-6.3218 6.8206,-10.7921 -1.1455,-4.0106 -5.8319,-5.9642 -9.5578,-3.826 -0.8794,0.5067 -1.7279,0.9205 -1.8938,0.9205 -0.3908,0 -1.2754,-1.7598 -1.1545,-2.2967 2.5006,-3.6519 8.5729,-10.0496 8.5729,-10.0496 l -9.4871,0 0,4.2844 -3.64096,0 0,-7.6875 18.54206,0 0,2.6083 c 0,0 -4.9679,5.1525 -6.6097,7.9742 4.0435,0.148 7.3027,2.7105 8.4727,6.7617 0.6827,2.1331 0.3767,7.0119 -0.5169,9.1147 -1.4926,3.5053 -5.5696,6.3493 -9.2967,6.513 -6.2575,0.4203 -9.57706,-3.9636 -11.23436,-7.2056 l 0,0 z m 0,0" fill="#272FD6" id="path17-2-9-4-8" inkscape:connector-curvature="0" style="opacity:1;d40000;fill-opacity:1"/>
	
			
      
			
	<path d="m 1208.2059,241.7622 -2.5406,1.8685 c -2.2049,-3.5904 -4.6708,-5.9552 -8.443,-5.5492 -5.6596,0.3889 -8.0047,6.3217 -6.8206,10.792 1.1455,4.0107 5.8319,5.9643 9.5578,3.8261 0.8794,-0.5068 1.7279,-0.9205 1.8938,-0.9205 0.3908,0 1.2754,1.7598 1.1545,2.2966 -2.5006,3.652 -8.5729,10.0497 -8.5729,10.0497 l 9.4871,0 0,-4.2844 3.641,0 0,7.6875 -18.5421,0 0,-2.6083 c 0,0 4.9679,-5.1525 6.6097,-7.9743 -4.0435,-0.1479 -7.3027,-2.7104 -8.4727,-6.7617 -0.6827,-2.133 -0.3767,-7.0118 0.5169,-9.1147 1.4926,-3.5052 5.5696,-6.3493 9.2967,-6.5129 6.2575,-0.4203 9.5771,3.9635 11.2344,7.2056 l 0,0 z m 0,0" fill="#272FD6" id="path17-5-3-3-8" inkscape:connector-curvature="0" style="opacity:1;d40000;fill-opacity:1"/>
	
			
    
		
</g>
</g></svg>