<?xml version="1.0" ?>
                <!-- Created with Inkscape (http://www.inkscape.org/) -->
                <svg id="svg11376" inkscape:version="0.91 r13725" sodipodi:docname="Color_52_Faces_v.2.0.svg" version="1.1" viewBox="259.43304 369.27557 225.22835 313.81104" width="223.22835mm" height="311.81104mm" xmlns="http://www.w3.org/2000/svg" xmlns:cc="http://creativecommons.org/ns#" xmlns:dc="http://purl.org/dc/elements/1.1/" xmlns:inkscape="http://www.inkscape.org/namespaces/inkscape" xmlns:rdf="http://www.w3.org/1999/02/22-rdf-syntax-ns#" xmlns:sodipodi="http://sodipodi.sourceforge.net/DTD/sodipodi-0.dtd" xmlns:svg="http://www.w3.org/2000/svg" xmlns:xlink="http://www.w3.org/1999/xlink"><g transform="matrix(1.004482,0.000000,0.000000,1.003209,-740.001648,1114.767292)"><g id="g11369-4-9" style="display:inline" transform="matrix(0.99553774,0,0,0.99680134,-10.596038,318.48631)">
	
			
      
			
	<g id="g9800-8-2" inkscape:label="5D" style="display:inline;opacity:1" transform="translate(750.64518,-1434.2756)">
		
				
        
				
		<rect height="311.81104" id="rect9802-4-3" rx="10.677567" ry="10.664032" style="display:inline;fill:#ffffff;fill-opacity:1;stroke:#000000;stroke-width:1.0005666;stroke-miterlimit:4;stroke-dasharray:none;stroke-opacity:1" width="223.22835" x="260.43304" y="370.27557"/>
		
				
      
			
	</g>
	
			
      
			
	<g id="g9820-5-5" style="display:inline;opacity:1" transform="translate(1011.0782,-1064)"/>
	
			
      
			
	<g id="g9826-3-1" style="display:inline;opacity:1" transform="translate(1037.6698,-1083.9055)"/>
	
			
      
			
	<path d="m -95.396892,-140.12123 c 0,0 -2.2247,-3.18978 -5.225698,-6.9401 -2.0077,-2.50969 -3.6127,-5.22722 -3.762,-7.56795 -0.1711,-2.67388 1.449,-5.35641 4.3821,-5.48643 2.931398,-0.12993 4.121198,2.06168 4.605598,3.86859 0.4844,-1.80691 1.6743,-3.99852 4.6056,-3.86859 2.9331,0.13002 4.5533,2.81255 4.3821,5.48643 -0.1492,2.34073 -1.7543,5.05826 -3.7619,7.56795 -3.0011,3.75032 -5.2258,6.9401 -5.2258,6.9401 z" id="path9834-5-2" inkscape:connector-curvature="0" sodipodi:nodetypes="cccscsccc" style="display:inline;opacity:1;fill:#d40000" transform="translate(1123.6924,-853.90551)"/>
	
			
      
			
	<path d="m 93.397604,31.743411 c 0,0 -2.2247,3.18978 -5.2257,6.9401 -2.0077,2.50969 -3.6127,5.22722 -3.762,7.56795 -0.1711,2.67388 1.449,5.35641 4.3821,5.48643 2.9314,0.12993 4.1212,-2.06168 4.6056,-3.86859 0.4844,1.80691 1.6743,3.99852 4.6056,3.86859 2.933096,-0.13002 4.553296,-2.81255 4.382096,-5.48643 -0.1492,-2.34073 -1.7543,-5.05826 -3.761896,-7.56795 -3.0011,-3.75032 -5.2258,-6.9401 -5.2258,-6.9401 z" id="path9836-5-8" inkscape:connector-curvature="0" sodipodi:nodetypes="cccscsccc" style="display:inline;opacity:1;fill:#d40000;stroke:none;stroke-opacity:1" transform="translate(1123.6924,-853.90551)"/>
	
			
      
			
	<path d="m -1.000046,-129.39963 c 0,0 -4.6663,-7.65547 -10.9609,-16.65626 -4.211,-6.02326 -7.5776,-12.54533 -7.8906,-18.16309 -0.359,-6.41731 3.0392,-12.85538 9.1914,-13.16741 6.1485,-0.31185 8.6442,4.94803 9.6601,9.28461 1.01600005,-4.33658 3.5117,-9.59646 9.6602,-9.28461 6.1522,0.31203 9.5504,6.7501 9.1914,13.16741 -0.313,5.61776 -3.6796,12.13983 -7.8906,18.16309 -6.2946,9.00079 -10.961,16.65626 -10.961,16.65626 z" id="path9840-3-6" inkscape:connector-curvature="0" sodipodi:nodetypes="cccscsccc" style="display:inline;opacity:1;fill:#d40000" transform="translate(1123.6924,-853.90551)"/>
	
			
      
			
	<path d="m -1.000056,-30.188979 c 0,0 -4.6663,-7.65547 -10.9609,-16.65626 -4.210998,-6.02326 -7.577598,-12.54533 -7.890598,-18.16309 -0.359,-6.41731 3.0392,-12.85538 9.191398,-13.16741 6.1485,-0.31185 8.6442,4.94803 9.6601,9.28461 1.01600005,-4.33658 3.5117,-9.59646 9.6602,-9.28461 6.1522,0.31203 9.5504,6.7501 9.1914,13.16741 -0.313,5.61776 -3.6796,12.13983 -7.8906,18.16309 -6.2946,9.00079 -10.961,16.65626 -10.961,16.65626 z" id="path9850-2-3" inkscape:connector-curvature="0" sodipodi:nodetypes="cccscsccc" style="display:inline;opacity:1;fill:#d40000" transform="translate(1123.6924,-853.90551)"/>
	
			
      
			
	<path d="m -1.000046,21.021681 c 0,0 -4.6663,7.65547 -10.9609,16.65626 -4.210997,6.02326 -7.577597,12.54533 -7.890597,18.16309 -0.359,6.41731 3.0392,12.85538 9.191397,13.16741 6.1485,0.31185 8.6442,-4.94803 9.6601,-9.28461 1.01600005,4.33658 3.5117,9.59646 9.6602,9.28461 6.1522,-0.31203 9.5504,-6.7501 9.1914,-13.16741 -0.313,-5.61776 -3.6796,-12.13983 -7.8906,-18.16309 -6.2946,-9.00079 -10.961,-16.65626 -10.961,-16.65626 z" id="path9854-8-0" inkscape:connector-curvature="0" sodipodi:nodetypes="cccscsccc" style="display:inline;opacity:1;fill:#d40000" transform="translate(1123.6924,-853.90551)"/>
	
			
      
			
	<path d="m 1017.584,-1024.3959 2.5406,-1.8685 c 2.2049,3.5904 4.6708,5.9551 8.443,5.5492 5.6596,-0.3889 8.0047,-6.3217 6.8206,-10.792 -1.1455,-4.0107 -5.8319,-5.9643 -9.5578,-3.8261 -0.8794,0.5068 -1.7279,0.9205 -1.8938,0.9205 -0.3908,0 -1.2754,-1.7598 -1.1545,-2.2966 2.5006,-3.652 8.5729,-10.0497 8.5729,-10.0497 l -9.4871,0 0,4.2844 -3.641,0 0,-7.6875 18.5421,0 0,2.6083 c 0,0 -4.9679,5.1525 -6.6097,7.9742 4.0435,0.148 7.3027,2.7105 8.4727,6.7618 0.6827,2.133 0.3767,7.0118 -0.5169,9.1147 -1.4926,3.5052 -5.5696,6.3493 -9.2967,6.5129 -6.2575,0.4203 -9.5771,-3.9635 -11.2344,-7.2056 l 0,0 z m 0,0" id="path17-2-9-8-4" inkscape:connector-curvature="0" style="opacity:1;fill:#d40000;fill-opacity:1;stroke-width:1;stroke-miterlimit:4;stroke-dasharray:none"/>
	
			
      
			
	<path d="m 1227.7986,-791.79289 -2.5406,1.8685 c -2.2049,-3.5904 -4.6708,-5.9552 -8.443,-5.5492 -5.6596,0.3889 -8.0047,6.3217 -6.8206,10.792 1.1455,4.0107 5.8319,5.9643 9.5578,3.8261 0.8794,-0.5068 1.7279,-0.9205 1.8938,-0.9205 0.3908,0 1.2754,1.7598 1.1545,2.2966 -2.5006,3.652 -8.5729,10.0497 -8.5729,10.0497 l 9.4871,0 0,-4.2844 3.641,0 0,7.6875 -18.5421,0 0,-2.6083 c 0,0 4.9679,-5.1525 6.6097,-7.9743 -4.0435,-0.1479 -7.3027,-2.7104 -8.4727,-6.7617 -0.6827,-2.133 -0.3767,-7.0118 0.5169,-9.1147 1.4926,-3.5052 5.5696,-6.3493 9.2967,-6.5129 6.2575,-0.4203 9.5771,3.9635 11.2344,7.2056 l 0,0 z m 0,0" id="path17-5-3-9-1-3" inkscape:connector-curvature="0" style="opacity:1;fill:#d40000;fill-opacity:1"/>
	
			
    
		
</g>
</g></svg>