<?xml version="1.0" ?>
                <!-- Created with Inkscape (http://www.inkscape.org/) -->
                <svg id="svg11376" inkscape:version="0.91 r13725" sodipodi:docname="Color_52_Faces_v.2.0.svg" version="1.1" viewBox="259.43304 369.27557 225.22835 313.81104" width="223.22835mm" height="311.81104mm" xmlns="http://www.w3.org/2000/svg" xmlns:cc="http://creativecommons.org/ns#" xmlns:dc="http://purl.org/dc/elements/1.1/" xmlns:inkscape="http://www.inkscape.org/namespaces/inkscape" xmlns:rdf="http://www.w3.org/1999/02/22-rdf-syntax-ns#" xmlns:sodipodi="http://sodipodi.sourceforge.net/DTD/sodipodi-0.dtd" xmlns:svg="http://www.w3.org/2000/svg" xmlns:xlink="http://www.w3.org/1999/xlink"><g transform="matrix(1.004482,0.000000,0.000000,1.003209,-1004.409852,1114.767292)"><g id="g11338-3-7" style="display:inline" transform="matrix(0.99553774,0,0,0.99680134,-31.938292,318.48631)">
	
			
      
			
	<g id="g9868-8-1" inkscape:label="5D" style="display:inline;opacity:1" transform="translate(1036.4913,-1434.2756)">
		
				
        
				
		<rect height="311.81104" id="rect9870-7-0" rx="10.677567" ry="10.664032" style="display:inline;fill:#ffffff;fill-opacity:1;stroke:#000000;stroke-width:1.0005666;stroke-miterlimit:4;stroke-dasharray:none;stroke-opacity:1" width="223.22835" x="260.43304" y="370.27557"/>
		
				
      
			
	</g>
	
			
      
			
	<g id="g9888-2-1" style="display:inline;opacity:1" transform="translate(1296.9243,-1064)"/>
	
			
      
			
	<g id="g9894-0-0" style="display:inline;opacity:1" transform="translate(1323.5159,-1083.9055)"/>
	
			
      
			
	<path d="m -95.396892,-140.12123 c 0,-0.003 -2.2247,-3.18978 -5.225698,-6.9401 -2.0077,-2.50969 -3.6127,-5.22722 -3.762,-7.56795 -0.1711,-2.67388 1.449,-5.35641 4.3821,-5.48643 2.931398,-0.12993 4.121198,2.06168 4.605598,3.86859 0.4844,-1.80691 1.6743,-3.99852 4.6056,-3.86859 2.9331,0.13002 4.5533,2.81255 4.3821,5.48643 -0.1492,2.34073 -1.7543,5.05826 -3.7619,7.56795 -3.0011,3.75032 -5.2239,6.9375 -5.2258,6.9401 z" id="path9902-6-7" inkscape:connector-curvature="0" style="display:inline;opacity:1;fill:#d40000" transform="translate(1409.5385,-853.90551)"/>
	
			
      
			
	<path d="m 93.397604,31.743411 c 0,0.003 -2.2247,3.18978 -5.2257,6.9401 -2.0077,2.50969 -3.6127,5.22722 -3.762,7.56795 -0.1711,2.67388 1.449,5.35641 4.3821,5.48643 2.9314,0.12993 4.1212,-2.06168 4.6056,-3.86859 0.4844,1.80691 1.6743,3.99852 4.6056,3.86859 2.933096,-0.13002 4.553296,-2.81255 4.382096,-5.48643 -0.1492,-2.34073 -1.7543,-5.05826 -3.761896,-7.56795 -3.0011,-3.75032 -5.2239,-6.9375 -5.2258,-6.9401 z" id="path9904-6-0" inkscape:connector-curvature="0" style="display:inline;opacity:1;fill:#d40000" transform="translate(1409.5385,-853.90551)"/>
	
			
      
			
	<path d="m -52.766444,-129.39963 c 0,-0.006 -4.6663,-7.65547 -10.9609,-16.65626 -4.211,-6.02326 -7.5776,-12.54533 -7.8906,-18.16309 -0.359,-6.41731 3.0392,-12.85538 9.1914,-13.16741 6.1485,-0.31185 8.6442,4.94803 9.6601,9.28461 1.016,-4.33658 3.5117,-9.59646 9.6602,-9.28461 6.1522,0.31203 9.5504,6.7501 9.1914,13.16741 -0.313,5.61776 -3.6796,12.13983 -7.8906,18.16309 -6.2946,9.00079 -10.957,16.65002 -10.961,16.65626 z" id="path9910-2-6" inkscape:connector-curvature="0" style="display:inline;opacity:1;fill:#d40000" transform="translate(1409.5385,-853.90551)"/>
	
			
      
			
	<path d="m 50.766354,-129.39963 c 0,-0.006 -4.6663,-7.65547 -10.9609,-16.65626 -4.211,-6.02326 -7.5776,-12.54533 -7.8906,-18.16309 -0.359,-6.41731 3.0392,-12.85538 9.1914,-13.16741 6.1485,-0.31185 8.6442,4.94803 9.6601,9.28461 1.016,-4.33658 3.5117,-9.59646 9.6602,-9.28461 6.1522,0.31203 9.5504,6.7501 9.1914,13.16741 -0.313,5.61776 -3.6796,12.13983 -7.8906,18.16309 -6.2946,9.00079 -10.957,16.65002 -10.961,16.65626 z" id="path9916-8-0" inkscape:connector-curvature="0" style="display:inline;opacity:1;fill:#d40000" transform="translate(1409.5385,-853.90551)"/>
	
			
      
			
	<path d="m 50.766354,21.021681 c 0,0.006 -4.6663,7.65547 -10.9609,16.65626 -4.211,6.02326 -7.5776,12.54533 -7.8906,18.16309 -0.359,6.41731 3.0392,12.85538 9.1914,13.16741 6.1485,0.31185 8.6442,-4.94803 9.6601,-9.28461 1.016,4.33658 3.5117,9.59646 9.6602,9.28461 6.1522,-0.31203 9.5504,-6.7501 9.1914,-13.16741 -0.313,-5.61776 -3.6796,-12.13983 -7.8906,-18.16309 -6.2946,-9.00079 -10.957,-16.65002 -10.961,-16.65626 z" id="path9930-7-9" inkscape:connector-curvature="0" style="display:inline;opacity:1;fill:#d40000" transform="translate(1409.5385,-853.90551)"/>
	
			
      
			
	<path d="m -52.766444,21.021681 c 0,0.006 -4.6663,7.65547 -10.9609,16.65626 -4.211,6.02326 -7.5776,12.54533 -7.8906,18.16309 -0.359,6.41731 3.0392,12.85538 9.1914,13.16741 6.1485,0.31185 8.6442,-4.94803 9.6601,-9.28461 1.016,4.33658 3.5117,9.59646 9.6602,9.28461 6.1522,-0.31203 9.5504,-6.7501 9.1914,-13.16741 -0.313,-5.61776 -3.6796,-12.13983 -7.8906,-18.16309 -6.2946,-9.00079 -10.957,-16.65002 -10.961,-16.65626 z" id="path9932-9-8" inkscape:connector-curvature="0" style="display:inline;opacity:1;fill:#d40000" transform="translate(1409.5385,-853.90551)"/>
	
			
      
			
	<path d="m 1314.3716,-1017.1662 0,-2.9148 2.6305,0 0,-4.808 -13.1577,0 0,-3.3926 14.2377,-21.8807 2.3258,0.012 0,21.869 4.028,0 0,3.3925 -4.028,0 -0.076,4.808 2.2049,0 0,2.9186 -8.1653,0 z m 2.6305,-24.9855 -9.0396,13.8715 9.0396,0 0,-13.8715 z m 0,0" id="path19-3-8-2-9" inkscape:connector-curvature="0" style="opacity:1;fill:#d40000;fill-opacity:1;stroke-width:1;stroke-miterlimit:4;stroke-dasharray:none"/>
	
			
      
			
	<path d="m 1502.7032,-799.02259 0,2.9147 -2.6305,0 0,4.808 13.1577,0 0,3.3925 -14.2377,21.8809 -2.3258,-0.012 0,-21.8691 -4.028,0 0,-3.3925 4.028,0 0.076,-4.808 -2.2049,0 0,-2.9186 8.1653,0 z m -2.6305,24.9854 9.0396,-13.8715 -9.0396,0 0,13.8715 z m 0,0" id="path19-4-46-0-1-9" inkscape:connector-curvature="0" style="opacity:1;fill:#d40000;fill-opacity:1"/>
	
			
    
		
</g>
</g></svg>