<?xml version="1.0" ?>
                <!-- Created with Inkscape (http://www.inkscape.org/) -->
                <svg id="svg11376" inkscape:version="0.91 r13725" sodipodi:docname="Color_52_Faces_v.2.0.svg" version="1.1" viewBox="1306.9252 -472.4082 225.22835 313.81104" width="223.22835mm" height="311.81104mm" xmlns="http://www.w3.org/2000/svg" xmlns:cc="http://creativecommons.org/ns#" xmlns:dc="http://purl.org/dc/elements/1.1/" xmlns:inkscape="http://www.inkscape.org/namespaces/inkscape" xmlns:rdf="http://www.w3.org/1999/02/22-rdf-syntax-ns#" xmlns:sodipodi="http://sodipodi.sourceforge.net/DTD/sodipodi-0.dtd" xmlns:svg="http://www.w3.org/2000/svg" xmlns:xlink="http://www.w3.org/1999/xlink"><g transform="matrix(1.004482,0.000000,0.000000,1.003209,43.082274,-79.857076)"><g id="g8436-8-0" style="display:inline" transform="matrix(0.99553774,0,0,0.99680134,-42.89003,79.60164)">
	
			
      
			
	<g id="g8473-4-9">
		
				
        
				
		<rect height="311.81104" id="rect6852-0-4" rx="10.677567" ry="10.664032" style="display:inline;opacity:1;fill:#ffffff;fill-opacity:1;stroke:#000000;stroke-width:1.0005666;stroke-miterlimit:4;stroke-dasharray:none;stroke-opacity:1" width="223.22835" x="1307.9252" y="-471.4082"/>
		
				
        
				
		<path d="m 1367.773,-438.71333 c -9.226,13.15712 -19.0977,20.72857 -19.2617,30.99333 -0.055,3.3239 1.7421,8.97342 7.3711,10.05478 3.652,0.69833 8.6801,-2.25748 8.7851,-8.26252 -0.016,-1.19555 1.2659,-1.16448 1.2539,0.47372 -0.172,4.73672 -1.6714,10.25156 -4.1914,14.74069 4.0287,0 8.0573,0 12.086,0 -2.52,-4.48913 -4.0194,-10.00397 -4.1914,-14.74069 -0.012,-1.6382 1.2699,-1.66927 1.2539,-0.47372 0.105,6.00504 5.1331,8.96085 8.7851,8.26252 5.629,-1.08136 7.4261,-6.73088 7.3711,-10.05478 -0.164,-10.26476 -10.0357,-17.83621 -19.2617,-30.99333 z" id="path6882-1-0" inkscape:connector-curvature="0" sodipodi:nodetypes="cccccccccccc" style="display:inline;opacity:1"/>
		
				
        
				
		<path d="m 1325.1425,-421.43493 c -4.3106,5.48214 -8.9228,8.6369 -8.9994,12.91389 -0.026,1.38495 0.8139,3.73892 3.4439,4.18949 1.7063,0.29097 4.0555,-0.94062 4.1046,-3.44272 -0.01,-0.49815 0.5914,-0.4852 0.5858,0.19738 -0.08,1.97364 -0.7809,4.27149 -1.9583,6.14196 1.8823,0 3.7645,0 5.6468,0 -1.1774,-1.87047 -1.878,-4.16832 -1.9583,-6.14196 -0.01,-0.68258 0.5933,-0.69553 0.5858,-0.19738 0.049,2.5021 2.3983,3.73369 4.1046,3.44272 2.63,-0.45057 3.4696,-2.80454 3.4439,-4.18949 -0.077,-4.27699 -4.6889,-7.43175 -8.9994,-12.91389 z" id="path6884-6-5" inkscape:connector-curvature="0" sodipodi:nodetypes="cccccccccccc" style="display:inline;opacity:1"/>
		
				
        
				
		<path d="m 1513.937,-209.57029 c -4.3106,-5.48214 -8.9228,-8.6369 -8.9994,-12.91389 -0.026,-1.38495 0.8139,-3.73892 3.4439,-4.18949 1.7063,-0.29097 4.0555,0.94062 4.1046,3.44272 -0.01,0.49815 0.5914,0.4852 0.5858,-0.19738 -0.08,-1.97364 -0.7809,-4.27149 -1.9583,-6.14196 1.8823,0 3.7645,0 5.6468,0 -1.1774,1.87047 -1.878,4.16832 -1.9583,6.14196 -0.01,0.68258 0.5933,0.69553 0.5858,0.19738 0.049,-2.5021 2.3983,-3.73369 4.1046,-3.44272 2.63,0.45057 3.4696,2.80454 3.4439,4.18949 -0.077,4.27699 -4.6889,7.43175 -8.9994,12.91389 z" id="path6888-1-5" inkscape:connector-curvature="0" sodipodi:nodetypes="cccccccccccc" style="display:inline;opacity:1"/>
		
				
        
				
		<path d="m 1471.3058,-438.71333 c -9.226,13.15712 -19.0977,20.72857 -19.2617,30.99333 -0.055,3.3239 1.7421,8.97342 7.3711,10.05478 3.652,0.69833 8.6801,-2.25748 8.7851,-8.26252 -0.016,-1.19555 1.2659,-1.16448 1.2539,0.47372 -0.172,4.73672 -1.6714,10.25156 -4.1914,14.74069 4.0287,0 8.0573,0 12.086,0 -2.52,-4.48913 -4.0194,-10.00397 -4.1914,-14.74069 -0.012,-1.6382 1.2699,-1.66927 1.2539,-0.47372 0.105,6.00504 5.1331,8.96085 8.7851,8.26252 5.629,-1.08136 7.4261,-6.73088 7.3711,-10.05478 -0.164,-10.26476 -10.0357,-17.83621 -19.2617,-30.99333 z" id="path6890-4-9" inkscape:connector-curvature="0" sodipodi:nodetypes="cccccccccccc" style="display:inline;opacity:1"/>
		
				
        
				
		<path d="m 1367.773,-192.29202 c -9.226,-13.15712 -19.0977,-20.72857 -19.2617,-30.99333 -0.055,-3.3239 1.7421,-8.97342 7.3711,-10.05478 3.652,-0.69833 8.6801,2.25748 8.7851,8.26252 -0.016,1.19555 1.2659,1.16448 1.2539,-0.47372 -0.172,-4.73672 -1.6714,-10.25156 -4.1914,-14.74069 4.0287,0 8.0573,0 12.086,0 -2.52,4.48913 -4.0194,10.00397 -4.1914,14.74069 -0.012,1.6382 1.2699,1.66927 1.2539,0.47372 0.105,-6.00504 5.1331,-8.96085 8.7851,-8.26252 5.629,1.08136 7.4261,6.73088 7.3711,10.05478 -0.164,10.26476 -10.0357,17.83621 -19.2617,30.99333 z" id="path6902-7-5" inkscape:connector-curvature="0" sodipodi:nodetypes="cccccccccccc" style="display:inline;opacity:1"/>
		
				
        
				
		<path d="m 1471.3058,-192.29202 c -9.226,-13.15712 -19.0977,-20.72857 -19.2617,-30.99333 -0.055,-3.3239 1.7421,-8.97342 7.3711,-10.05478 3.652,-0.69833 8.6801,2.25748 8.7851,8.26252 -0.016,1.19555 1.2659,1.16448 1.2539,-0.47372 -0.172,-4.73672 -1.6714,-10.25156 -4.1914,-14.74069 4.0287,0 8.0573,0 12.086,0 -2.52,4.48913 -4.0194,10.00397 -4.1914,14.74069 -0.012,1.6382 1.2699,1.66927 1.2539,0.47372 0.105,-6.00504 5.1331,-8.96085 8.7851,-8.26252 5.629,1.08136 7.4261,6.73088 7.3711,10.05478 -0.164,10.26476 -10.0357,17.83621 -19.2617,30.99333 z" id="path6904-9-7" inkscape:connector-curvature="0" sodipodi:nodetypes="cccccccccccc" style="display:inline;opacity:1"/>
		
				
        
				
		<path d="m 1325.3725,-424.57454 0,-2.9146 2.6305,0 0,-4.808 -13.1577,0 0,-3.3926 14.2377,-21.8808 2.3258,0.012 0,21.869 4.028,0 0,3.3926 -4.028,0 -0.076,4.808 2.2049,0 0,2.9186 -8.1653,0 z m 2.6305,-24.9853 -9.0396,13.8714 9.0396,0 0,-13.8714 z m 0,0" id="path19-08-0-9" inkscape:connector-curvature="0" style="opacity:1"/>
		
				
        
				
		<path d="m 1513.7055,-206.43068 0,2.9146 -2.6305,0 0,4.808 13.1577,0 0,3.3926 -14.2377,21.8808 -2.3258,-0.012 0,-21.869 -4.028,0 0,-3.3926 4.028,0 0.076,-4.808 -2.2049,0 0,-2.9186 8.1653,0 z m -2.6305,24.9853 9.0396,-13.8714 -9.0396,0 0,13.8714 z m 0,0" id="path19-08-1-1-4" inkscape:connector-curvature="0" style="display:inline;opacity:1"/>
		
				
      
			
	</g>
	
			
    
		
</g>
</g></svg>