<?xml version="1.0" ?>
                <!-- Created with Inkscape (http://www.inkscape.org/) -->
                <svg id="svg11376" inkscape:version="0.91 r13725" sodipodi:docname="Color_52_Faces_v.2.0.svg" version="1.1" viewBox="1518.9358 -31.444927 225.22835 313.81104" width="223.22835mm" height="311.81104mm" xmlns="http://www.w3.org/2000/svg" xmlns:cc="http://creativecommons.org/ns#" xmlns:dc="http://purl.org/dc/elements/1.1/" xmlns:inkscape="http://www.inkscape.org/namespaces/inkscape" xmlns:rdf="http://www.w3.org/1999/02/22-rdf-syntax-ns#" xmlns:sodipodi="http://sodipodi.sourceforge.net/DTD/sodipodi-0.dtd" xmlns:svg="http://www.w3.org/2000/svg" xmlns:xlink="http://www.w3.org/1999/xlink"><g transform="matrix(1.004485,0.000000,0.000000,1.003207,-9.319975,8.165843)"><g id="g6746" transform="matrix(0.99553491,0,0,0.99680337,9.2783608,-8.1397402)">
	
			
      
			
	<rect height="311.81104" id="rect6690-8" rx="10.677597" ry="10.66401" style="display:inline;fill:#ffffff;fill-opacity:1;stroke:#000000;stroke-width:1.0005666;stroke-miterlimit:4;stroke-dasharray:none;stroke-opacity:1" width="223.22835" x="1519.9358" y="-30.444927"/>
	
			
      
			
	<path d="m 1537.153,39.528358 c -2.1609,-3.568597 -4.4344,-7.037098 -7.2754,-9.999997 2.841,-2.962801 5.1145,-6.4313 7.2754,-10 2.1609,3.5687 4.4343,7.037199 7.2754,10 -2.8411,2.962899 -5.1145,6.4314 -7.2754,9.999997 z" fill="#272FD6" id="path6722-9" inkscape:connector-curvature="0" style="display:inline;opacity:1;d40000"/>
	
			
      
			
	<path d="m 1683.3163,50.24996 c -5.1862,-8.5648 -10.6425,-16.8891 -17.461,-24 6.8185,-7.1108 12.2748,-15.4351 17.461,-24 5.1862,8.5649 10.6424,16.8892 17.4609,24 -6.8185,7.1109 -12.2747,15.4352 -17.4609,24 z" fill="#272FD6" id="path6724-6" inkscape:connector-curvature="0" style="display:inline;opacity:1;d40000"/>
	
			
      
			
	<path d="m 1725.9475,231.393 c -2.1609,-3.5686 -4.4344,-7.0371 -7.2754,-10 2.841,-2.9628 5.1145,-6.4313 7.2754,-10 2.1609,3.5687 4.4343,7.0372 7.2754,10 -2.8411,2.9629 -5.1145,6.4314 -7.2754,10 z" fill="#272FD6" id="path6726-3" inkscape:connector-curvature="0" style="display:inline;opacity:1;d40000"/>
	
			
      
			
	<path d="m 1579.7835,50.24996 c -5.1862,-8.5648 -10.6425,-16.8891 -17.461,-24 6.8185,-7.1108 12.2748,-15.4351 17.461,-24 5.1862,8.5649 10.6424,16.8892 17.4609,24 -6.8185,7.1109 -12.2747,15.4352 -17.4609,24 z" fill="#272FD6" id="path6728-7" inkscape:connector-curvature="0" style="display:inline;opacity:1;d40000"/>
	
			
      
			
	<path d="m 1631.5499,149.46061 c -5.1862,-8.5648 -10.6425,-16.8891 -17.461,-24 6.8185,-7.1108 12.2748,-15.4351 17.461,-24 5.1862,8.5649 10.6424,16.8892 17.4609,24 -6.8185,7.1109 -12.2747,15.4352 -17.4609,24 z" fill="#272FD6" id="path6736-0" inkscape:connector-curvature="0" style="display:inline;opacity:1;d40000"/>
	
			
      
			
	<path d="m 1579.7835,248.67634 c -5.1862,-8.5648 -10.6425,-16.8891 -17.461,-24 6.8185,-7.1108 12.2748,-15.4351 17.461,-24 5.1862,8.5649 10.6424,16.8892 17.4609,24 -6.8185,7.1109 -12.2747,15.4352 -17.4609,24 z" fill="#272FD6" id="path6744-9" inkscape:connector-curvature="0" style="display:inline;opacity:1;d40000"/>
	
			
      
			
	<path d="m 1683.3163,248.68328 c -5.1862,-8.5648 -10.6425,-16.8891 -17.461,-24 6.8185,-7.1108 12.2748,-15.4351 17.461,-24 5.1862,8.5649 10.6424,16.8892 17.4609,24 -6.8185,7.1109 -12.2747,15.4352 -17.4609,24 z" fill="#272FD6" id="path6746-2" inkscape:connector-curvature="0" style="display:inline;opacity:1;d40000"/>
	
			
      
			
	<path d="m 1526.7501,7.8496 3.2348,-0.031 c 0.6171,1.9918 1.9825,4.0164 3.8365,4.5782 5.2378,1.2532 8.6076,-1.7286 9.7172,-5.1662 1.3461,-4.1696 -0.03,-10.0246 -3.636,-12.1028 -2.9879,-1.7234 -7.4274,-0.2698 -9.4664,3.4166 l -2.2654,-1.4117 1.2162,-13.7398 14.7995,0 0,3.2477 -11.9928,0 -0.1903,5.724 c 2.5817,-1.8464 6.5493,-1.8268 9.1296,-0.5316 4.8869,2.3742 7.1574,7.7721 6.2086,14.1339 -1.3165,6.3277 -4.2196,9.9133 -10.7676,10.4253 -7.2834,0.067 -9.8548,-5.0339 -9.8239,-8.5422 l 0,0 z m 0,0" fill="#272FD6" id="path21-9-8-2-7" inkscape:connector-curvature="0" style="opacity:1;d40000;fill-opacity:1"/>
	
			
      
			
	<path d="m 1736.3475,243.0718 -3.2348,0.031 c -0.6171,-1.9919 -1.9825,-4.0164 -3.8365,-4.5782 -5.2378,-1.2533 -8.6076,1.7286 -9.7172,5.1661 -1.3461,4.1697 0.03,10.0246 3.636,12.1029 2.9879,1.7234 7.4274,0.2698 9.4664,-3.4166 l 2.2654,1.4117 -1.2162,13.7398 -14.7995,0 0,-3.2477 11.9928,0 0.1903,-5.7241 c -2.5817,1.8465 -6.5493,1.8269 -9.1296,0.5317 -4.8869,-2.3742 -7.1574,-7.7722 -6.2086,-14.1339 1.3165,-6.3278 4.2196,-9.9133 10.7676,-10.4254 7.2834,-0.067 9.8548,5.0339 9.8239,8.5422 l 0,0 z m 0,0" fill="#272FD6" id="path21-3-0-8-6" inkscape:connector-curvature="0" style="opacity:1;d40000;fill-opacity:1"/>
	
			
    
		
</g>
</g></svg>