<?xml version="1.0" ?>
                <!-- Created with Inkscape (http://www.inkscape.org/) -->
                <svg id="svg11376" inkscape:version="0.91 r13725" sodipodi:docname="Color_52_Faces_v.2.0.svg" version="1.1" viewBox="2047.3857 -31.444927 225.22835 313.81104" width="223.22835mm" height="311.81104mm" xmlns="http://www.w3.org/2000/svg" xmlns:cc="http://creativecommons.org/ns#" xmlns:dc="http://purl.org/dc/elements/1.1/" xmlns:inkscape="http://www.inkscape.org/namespaces/inkscape" xmlns:rdf="http://www.w3.org/1999/02/22-rdf-syntax-ns#" xmlns:sodipodi="http://sodipodi.sourceforge.net/DTD/sodipodi-0.dtd" xmlns:svg="http://www.w3.org/2000/svg" xmlns:xlink="http://www.w3.org/1999/xlink"><g transform="matrix(1.004485,0.000000,0.000000,1.003207,-9.687937,8.165843)"><g id="g6771" transform="matrix(0.99553491,0,0,0.99680337,9.6446796,-8.1397402)">
	
			
      
			
	<rect height="311.81104" id="rect6826-9" rx="10.677597" ry="10.66401" style="display:inline;fill:#ffffff;fill-opacity:1;stroke:#000000;stroke-width:1.0005666;stroke-miterlimit:4;stroke-dasharray:none;stroke-opacity:1" width="223.22835" x="2048.3857" y="-30.444927"/>
	
			
      
			
	<path d="m 2065.6031,39.528358 c -2.1609,-3.568597 -4.4344,-7.037098 -7.2754,-9.999997 2.841,-2.962801 5.1145,-6.4313 7.2754,-10 2.1609,3.5687 4.4343,7.037199 7.2754,10 -2.8411,2.962899 -5.1145,6.4314 -7.2754,9.999997 z" fill="#272FD6" id="path6858-4" inkscape:connector-curvature="0" style="display:inline;opacity:1;d40000"/>
	
			
      
			
	<path d="m 2211.7664,50.24996 c -5.1862,-8.5648 -10.6425,-16.8891 -17.461,-24 6.8185,-7.1108 12.2748,-15.4351 17.461,-24 5.1862,8.5649 10.6424,16.8892 17.4609,24 -6.8185,7.1109 -12.2747,15.4352 -17.4609,24 z" fill="#272FD6" id="path6860-1" inkscape:connector-curvature="0" style="display:inline;opacity:1;d40000"/>
	
			
      
			
	<path d="m 2254.3976,231.393 c -2.1609,-3.5686 -4.4344,-7.0371 -7.2754,-10 2.841,-2.9628 5.1145,-6.4313 7.2754,-10 2.1609,3.5687 4.4343,7.0372 7.2754,10 -2.8411,2.9629 -5.1145,6.4314 -7.2754,10 z" fill="#272FD6" id="path6862-0" inkscape:connector-curvature="0" style="display:inline;opacity:1;d40000"/>
	
			
      
			
	<path d="m 2108.2336,50.24996 c -5.1862,-8.5648 -10.6425,-16.8891 -17.461,-24 6.8185,-7.1108 12.2748,-15.4351 17.461,-24 5.1862,8.5649 10.6424,16.8892 17.4609,24 -6.8185,7.1109 -12.2747,15.4352 -17.4609,24 z" fill="#272FD6" id="path6864-5" inkscape:connector-curvature="0" style="display:inline;opacity:1;d40000"/>
	
			
      
			
	<path d="m 2160,99.83912 c -5.1862,-8.5648 -10.6425,-16.88911 -17.461,-24 6.8185,-7.110804 12.2748,-15.435104 17.461,-24.000003 5.1862,8.564899 10.6424,16.889199 17.4609,24.000003 -6.8185,7.11089 -12.2747,15.4352 -17.4609,24 z" fill="#272FD6" id="path6870-5" inkscape:connector-curvature="0" style="display:inline;opacity:1;d40000"/>
	
			
      
			
	<path d="m 2108.2336,149.42827 c -5.1862,-8.5648 -10.6425,-16.8891 -17.461,-24 6.8185,-7.1108 12.2748,-15.4351 17.461,-24 5.1862,8.5649 10.6424,16.8892 17.4609,24 -6.8185,7.1109 -12.2747,15.4352 -17.4609,24 z" fill="#272FD6" id="path6874-1" inkscape:connector-curvature="0" style="display:inline;opacity:1;d40000"/>
	
			
      
			
	<path d="m 2211.7664,149.44384 c -5.1862,-8.5648 -10.6425,-16.8891 -17.461,-24 6.8185,-7.1108 12.2748,-15.4351 17.461,-24 5.1862,8.5649 10.6424,16.8892 17.4609,24 -6.8185,7.1109 -12.2747,15.4352 -17.4609,24 z" fill="#272FD6" id="path6876-6" inkscape:connector-curvature="0" style="display:inline;opacity:1;d40000"/>
	
			
      
			
	<path d="m 2108.2336,248.67634 c -5.1862,-8.5648 -10.6425,-16.8891 -17.461,-24 6.8185,-7.1108 12.2748,-15.4351 17.461,-24 5.1862,8.5649 10.6424,16.8892 17.4609,24 -6.8185,7.1109 -12.2747,15.4352 -17.4609,24 z" fill="#272FD6" id="path6880-5" inkscape:connector-curvature="0" style="display:inline;opacity:1;d40000"/>
	
			
      
			
	<path d="m 2211.7664,248.68328 c -5.1862,-8.5648 -10.6425,-16.8891 -17.461,-24 6.8185,-7.1108 12.2748,-15.4351 17.461,-24 5.1862,8.5649 10.6424,16.8892 17.4609,24 -6.8185,7.1109 -12.2747,15.4352 -17.4609,24 z" fill="#272FD6" id="path6882-9" inkscape:connector-curvature="0" style="display:inline;opacity:1;d40000"/>
	
			
      
			
	<path d="m 2060.5289,16.3892 c 2.1703,-11.4733 4.4806,-20.0867 10.5465,-29.4347 l -12.3297,0 0,4.0238 -3.2734,0 0,-7.5855 18.0343,0 2.2243,3.5617 c -6.4426,7.0329 -12.3388,29.7673 -11.2948,29.4347 l -3.9072,0 z m 0,0" fill="#272FD6" id="path25-43-4-8-8" inkscape:connector-curvature="0" style="opacity:1;d40000;fill-opacity:1"/>
	
			
      
			
	<path d="m 2259.4688,234.5321 c -2.1703,11.4732 -4.4806,20.0867 -10.5465,29.4347 l 12.3297,0 0,-4.0239 3.2734,0 0,7.5856 -18.0343,0 -2.2243,-3.5617 c 6.4426,-7.0329 12.3388,-29.7673 11.2948,-29.4347 l 3.9072,0 z m 0,0" fill="#272FD6" id="path25-7-0-7-6" inkscape:connector-curvature="0" style="opacity:1;d40000;fill-opacity:1"/>
	
			
    
		
</g>
</g></svg>