<?xml version="1.0" ?>
                <!-- Created with Inkscape (http://www.inkscape.org/) -->
                <svg id="svg11376" inkscape:version="0.91 r13725" sodipodi:docname="Color_52_Faces_v.2.0.svg" version="1.1" viewBox="259.43304 369.27557 225.22835 313.81104" width="223.22835mm" height="311.81104mm" xmlns="http://www.w3.org/2000/svg" xmlns:cc="http://creativecommons.org/ns#" xmlns:dc="http://purl.org/dc/elements/1.1/" xmlns:inkscape="http://www.inkscape.org/namespaces/inkscape" xmlns:rdf="http://www.w3.org/1999/02/22-rdf-syntax-ns#" xmlns:sodipodi="http://sodipodi.sourceforge.net/DTD/sodipodi-0.dtd" xmlns:svg="http://www.w3.org/2000/svg" xmlns:xlink="http://www.w3.org/1999/xlink"><g transform="matrix(1.004482,0.000000,0.000000,1.003209,-211.185238,1114.767292)"><g id="g11425-5-5" style="display:inline" transform="matrix(0.99553774,0,0,0.99680134,32.088628,318.48631)">
	
			
      
			
	<g id="g9664-0-2" inkscape:label="5D" style="display:inline;opacity:1" transform="translate(178.95278,-1434.2756)">
		
				
        
				
		<rect height="311.81104" id="rect9666-2-2" rx="10.677567" ry="10.664032" style="display:inline;fill:#ffffff;fill-opacity:1;stroke:#000000;stroke-width:1.0005666;stroke-miterlimit:4;stroke-dasharray:none;stroke-opacity:1" width="223.22835" x="260.43304" y="370.27557"/>
		
				
      
			
	</g>
	
			
      
			
	<g id="g9684-3-0" style="display:inline;opacity:1" transform="translate(439.38585,-1064)"/>
	
			
      
			
	<g id="g9690-5-6" style="display:inline;opacity:1" transform="translate(465.9774,-1083.9055)"/>
	
			
      
			
	<path d="m -95.396892,-140.12123 c 0,0 -2.2247,-3.18978 -5.225698,-6.9401 -2.0077,-2.50969 -3.6127,-5.22722 -3.762,-7.56795 -0.1711,-2.67388 1.449,-5.35641 4.3821,-5.48643 2.931398,-0.12993 4.121198,2.06168 4.605598,3.86859 0.4844,-1.80691 1.6743,-3.99852 4.6056,-3.86859 2.9331,0.13002 4.5533,2.81255 4.3821,5.48643 -0.1492,2.34073 -1.7543,5.05826 -3.7619,7.56795 -3.0011,3.75032 -5.2258,6.9401 -5.2258,6.9401 z" id="path9698-0-0" inkscape:connector-curvature="0" sodipodi:nodetypes="cccscsccc" style="display:inline;opacity:1;fill:#d40000" transform="translate(552.00001,-853.90551)"/>
	
			
      
			
	<path d="m 93.397604,31.743411 c 0,0 -2.2247,3.18978 -5.2257,6.9401 -2.0077,2.50969 -3.6127,5.22722 -3.762,7.56795 -0.1711,2.67388 1.449,5.35641 4.3821,5.48643 2.9314,0.12993 4.1212,-2.06168 4.6056,-3.86859 0.4844,1.80691 1.6743,3.99852 4.6056,3.86859 2.933096,-0.13002 4.553296,-2.81255 4.382096,-5.48643 -0.1492,-2.34073 -1.7543,-5.05826 -3.761896,-7.56795 -3.0011,-3.75032 -5.2258,-6.9401 -5.2258,-6.9401 z" id="path9700-3-2" inkscape:connector-curvature="0" sodipodi:nodetypes="cccscsccc" style="display:inline;opacity:1;fill:#d40000" transform="translate(552.00001,-853.90551)"/>
	
			
      
			
	<path d="m -1.000056,-30.188979 c 0,0 -4.6663,-7.65547 -10.9609,-16.65626 -4.210998,-6.02326 -7.577598,-12.54533 -7.890598,-18.16309 -0.359,-6.41731 3.0392,-12.85538 9.191398,-13.16741 6.1485,-0.31185 8.6442,4.94803 9.6601,9.28461 1.01600005,-4.33658 3.5117,-9.59646 9.6602,-9.28461 6.1522,0.31203 9.5504,6.7501 9.1914,13.16741 -0.313,5.61776 -3.6796,12.13983 -7.8906,18.16309 -6.2946,9.00079 -10.961,16.65626 -10.961,16.65626 z" id="path9714-6-6" inkscape:connector-curvature="0" sodipodi:nodetypes="cccscsccc" style="display:inline;opacity:1;fill:#d40000" transform="translate(552.00001,-853.90551)"/>
	
			
      
			
	<path d="m 446.50961,-1017.1623 0,-2.8217 2.6923,0 5.7354,-30.1783 3.2644,0 6.3179,30.1783 2.1741,0 0,2.8217 -7.4082,0 0,-2.8217 1.9993,0 -0.7984,-4.6247 -7.4737,0 -0.5773,4.6247 1.9992,0 0,2.8217 -7.925,0 z m 13.3391,-10.7407 -3.249,-16.1524 -3.0432,16.1524 6.2922,0 z m 0,0" id="path41-87-8-3-9" inkscape:connector-curvature="0" style="opacity:1;fill:#d40000;fill-opacity:1;stroke-width:1;stroke-miterlimit:4;stroke-dasharray:none"/>
	
			
      
			
	<path d="m 635.30412,-799.02659 0,2.8217 2.6923,0 5.7354,30.1783 3.2644,0 6.3179,-30.1783 2.1741,0 0,-2.8217 -7.4082,0 0,2.8217 1.9993,0 -0.7984,4.6246 -7.4737,0 -0.5773,-4.6246 1.9992,0 0,-2.8217 -7.925,0 z m 13.3391,10.7407 -3.249,16.1524 -3.0432,-16.1524 6.2922,0 z m 0,0" id="path41-8-5-1-8-7" inkscape:connector-curvature="0" style="opacity:1;fill:#d40000;fill-opacity:1"/>
	
			
    
		
</g>
</g></svg>